<svg width="158" height="111" viewBox="0 0 158 111" fill="none" xmlns="http://www.w3.org/2000/svg">
<path d="M153.915 17.2944C152.107 10.4869 146.78 5.12559 140.017 3.30615C127.758 0 78.6 0 78.6 0C78.6 0 29.4424 0 17.183 3.30615C10.4196 5.12588 5.09278 10.4869 3.28485 17.2944C0 29.6333 0 55.3772 0 55.3772C0 55.3772 0 81.1212 3.28485 93.4601C5.09278 100.268 10.4196 105.406 17.183 107.225C29.4424 110.531 78.6 110.531 78.6 110.531C78.6 110.531 127.758 110.531 140.017 107.225C146.78 105.406 152.107 100.268 153.915 93.4601C157.2 81.1212 157.2 55.3772 157.2 55.3772C157.2 55.3772 157.2 29.6333 153.915 17.2944V17.2944ZM62.5226 78.7508V32.0036L103.609 55.3778L62.5226 78.7508Z" fill="white"/>
</svg>
