<svg width="14" height="10" viewBox="0 0 14 10" fill="none" xmlns="http://www.w3.org/2000/svg">
<path d="M12.0833 0H1.25C0.559635 0 0 0.559635 0 1.25V8.75C0 9.44036 0.559635 10 1.25 10H12.0833C12.7737 10 13.3333 9.44036 13.3333 8.75V1.25C13.3333 0.559635 12.7737 0 12.0833 0ZM12.0833 1.25V2.31263C11.4994 2.78812 10.5685 3.5275 8.57846 5.08581C8.1399 5.43078 7.27115 6.25956 6.66667 6.2499C6.06229 6.25966 5.19326 5.43065 4.75487 5.08581C2.7651 3.52773 1.83398 2.7882 1.25 2.31263V1.25H12.0833ZM1.25 8.75V3.91661C1.84672 4.3919 2.69294 5.05885 3.98276 6.06885C4.55195 6.5169 5.54875 7.50599 6.66667 7.49997C7.77909 7.50599 8.76326 6.53125 9.35034 6.06906C10.6401 5.05909 11.4866 4.39195 12.0833 3.91664V8.75H1.25Z" fill="white"/>
</svg>
