<svg width="60" height="60" viewBox="0 0 60 60" fill="none" xmlns="http://www.w3.org/2000/svg">
<circle cx="30" cy="30" r="30" fill="#CC8712"/>
<path d="M45 17.898V20.9592C45 23.6569 38.2813 25.8571 30 25.8571C21.7187 25.8571 15 23.6569 15 20.9592V17.898C15 15.2002 21.7187 13 30 13C38.2813 13 45 15.2002 45 17.898ZM45 24.7857V31.6735C45 34.3712 38.2813 36.5714 30 36.5714C21.7187 36.5714 15 34.3712 15 31.6735V24.7857C18.2227 27.0051 24.1211 28.0383 30 28.0383C35.8789 28.0383 41.7773 27.0051 45 24.7857V24.7857ZM45 35.5V42.3877C45 45.0855 38.2813 47.2857 30 47.2857C21.7187 47.2857 15 45.0855 15 42.3877V35.5C18.2227 37.7194 24.1211 38.7526 30 38.7526C35.8789 38.7526 41.7773 37.7194 45 35.5Z" fill="white"/>
</svg>
