<svg width="60" height="60" viewBox="0 0 60 60" fill="none" xmlns="http://www.w3.org/2000/svg">
<circle cx="30" cy="30" r="30" fill="#00BFFF"/>
<path d="M43.9375 15H15.8125C14.2598 15 13 16.2598 13 17.8125V36.5625C13 38.1152 14.2598 39.375 15.8125 39.375H27.0625L26.125 42.1875H21.9063C21.127 42.1875 20.5 42.8145 20.5 43.5938C20.5 44.373 21.127 45 21.9063 45H37.8438C38.6231 45 39.25 44.373 39.25 43.5938C39.25 42.8145 38.6231 42.1875 37.8438 42.1875H33.625L32.6875 39.375H43.9375C45.4902 39.375 46.75 38.1152 46.75 36.5625V17.8125C46.75 16.2598 45.4902 15 43.9375 15ZM43 35.625H16.75V18.75H43V35.625Z" fill="white"/>
</svg>
