<svg width="60" height="60" viewBox="0 0 60 60" fill="none" xmlns="http://www.w3.org/2000/svg">
<circle cx="30" cy="30" r="30" fill="#6610F2"/>
<path d="M37.5355 15H23.0945C21.3861 15 20 16.2598 20 17.8125V42.1875C20 43.7402 21.3861 45 23.0945 45H37.5355C39.2439 45 40.63 43.7402 40.63 42.1875V17.8125C40.63 16.2598 39.2439 15 37.5355 15ZM30.315 43.125C29.1739 43.125 28.252 42.2871 28.252 41.25C28.252 40.2129 29.1739 39.375 30.315 39.375C31.4561 39.375 32.378 40.2129 32.378 41.25C32.378 42.2871 31.4561 43.125 30.315 43.125ZM37.5355 36.7969C37.5355 37.1836 37.1874 37.5 36.7619 37.5H23.8681C23.4426 37.5 23.0945 37.1836 23.0945 36.7969V18.5156C23.0945 18.1289 23.4426 17.8125 23.8681 17.8125H36.7619C37.1874 17.8125 37.5355 18.1289 37.5355 18.5156V36.7969Z" fill="white"/>
</svg>
