<svg width="60" height="60" viewBox="0 0 60 60" fill="none" xmlns="http://www.w3.org/2000/svg">
<circle cx="30" cy="30" r="30" fill="#00D280"/>
<path d="M46.75 29.0625C46.75 27.6779 45.9912 26.482 44.875 25.8328V16.8756C44.875 16.3629 44.466 15 43 15C42.5828 15 42.1686 15.1395 41.8293 15.4113L36.8471 19.3975C34.3445 21.3979 31.2027 22.5 28 22.5H16.75C14.6787 22.5 13 24.1787 13 26.25V31.875C13 33.9463 14.6787 35.625 16.75 35.625H18.7246C18.6432 36.2391 18.5969 36.8637 18.5969 37.5C18.5969 39.8303 19.1395 42.0322 20.0945 44.0004C20.3986 44.6268 21.0625 45 21.7586 45H26.1109C27.6373 45 28.5537 43.2516 27.6285 42.0375C26.6676 40.7766 26.0963 39.2039 26.0963 37.5C26.0963 36.849 26.1912 36.2232 26.3547 35.625H28C31.2027 35.625 34.3445 36.7271 36.8465 38.7275L41.8287 42.7137C42.161 42.9796 42.5738 43.1246 42.9994 43.125C44.4596 43.125 44.8744 41.7902 44.8744 41.25V32.2928C45.9912 31.643 46.75 30.4471 46.75 29.0625ZM41.125 37.3488L39.1885 35.7996C36.0244 33.2684 32.05 31.875 28 31.875V26.25C32.05 26.25 36.0244 24.8566 39.1885 22.3254L41.125 20.7762V37.3488Z" fill="white"/>
</svg>
