<svg width="60" height="60" viewBox="0 0 60 60" fill="none" xmlns="http://www.w3.org/2000/svg">
<circle cx="30" cy="30" r="30" fill="#FC3549"/>
<path d="M44.587 40.9369L38.7457 35.0957C38.4821 34.832 38.1247 34.6856 37.7497 34.6856H36.7947C38.4118 32.6174 39.3726 30.0161 39.3726 27.1863C39.3726 20.4545 33.9181 15 27.1863 15C20.4545 15 15 20.4545 15 27.1863C15 33.9181 20.4545 39.3726 27.1863 39.3726C30.0161 39.3726 32.6174 38.4118 34.6856 36.7947V37.7497C34.6856 38.1247 34.832 38.4821 35.0957 38.7457L40.9369 44.587C41.4876 45.1377 42.3782 45.1377 42.9231 44.587L44.5811 42.9289C45.1318 42.3782 45.1318 41.4876 44.587 40.9369ZM27.1863 34.6856C23.0441 34.6856 19.687 31.3343 19.687 27.1863C19.687 23.0441 23.0383 19.687 27.1863 19.687C31.3285 19.687 34.6856 23.0383 34.6856 27.1863C34.6856 31.3285 31.3343 34.6856 27.1863 34.6856Z" fill="white"/>
</svg>
