<svg width="60" height="60" viewBox="0 0 60 60" fill="none" xmlns="http://www.w3.org/2000/svg">
<circle cx="30" cy="30" r="30" fill="#FF612F"/>
<path d="M42.5469 24.375C42.9336 24.375 43.25 24.0586 43.25 23.6719V21.3281C43.25 20.9414 42.9336 20.625 42.5469 20.625H41.375V17.8125C41.375 16.2598 40.1152 15 38.5625 15H19.8125C18.2598 15 17 16.2598 17 17.8125V42.1875C17 43.7402 18.2598 45 19.8125 45H38.5625C40.1152 45 41.375 43.7402 41.375 42.1875V39.375H42.5469C42.9336 39.375 43.25 39.0586 43.25 38.6719V36.3281C43.25 35.9414 42.9336 35.625 42.5469 35.625H41.375V31.875H42.5469C42.9336 31.875 43.25 31.5586 43.25 31.1719V28.8281C43.25 28.4414 42.9336 28.125 42.5469 28.125H41.375V24.375H42.5469ZM38.5625 42.1875H19.8125V17.8125H38.5625V42.1875ZM29.1875 30C31.2559 30 32.9375 28.3184 32.9375 26.25C32.9375 24.1816 31.2559 22.5 29.1875 22.5C27.1191 22.5 25.4375 24.1816 25.4375 26.25C25.4375 28.3184 27.1191 30 29.1875 30ZM23.9375 37.5H34.4375C35.1641 37.5 35.75 36.9961 35.75 36.375V35.25C35.75 33.3867 33.9863 31.875 31.8125 31.875C31.1797 31.875 30.7168 32.3438 29.1875 32.3438C27.6113 32.3438 27.2305 31.875 26.5625 31.875C24.3887 31.875 22.625 33.3867 22.625 35.25V36.375C22.625 36.9961 23.2109 37.5 23.9375 37.5V37.5Z" fill="white"/>
</svg>
