<svg width="60" height="60" viewBox="0 0 60 60" fill="none" xmlns="http://www.w3.org/2000/svg">
<circle cx="30" cy="30" r="30" fill="#800080"/>
<path d="M44.4499 26.2832C43.9343 24.2141 42.9567 22.6538 40.8742 22.6538H38.189V25.8278C38.189 28.292 36.0998 30.3679 33.7159 30.3679H26.5644C24.6091 30.3679 22.9886 32.0419 22.9886 34.0039V40.8206C22.9886 42.7625 24.6761 43.9009 26.5644 44.4567C28.8277 45.1196 31.004 45.2401 33.7159 44.4567C35.5172 43.9344 37.2917 42.8831 37.2917 40.8206V38.0953H30.1469V37.1846H40.8742C42.9567 37.1846 43.7267 35.7315 44.4499 33.5553C45.1999 31.312 45.1664 29.1559 44.4499 26.2832V26.2832ZM34.1646 39.91C34.9079 39.91 35.5105 40.5193 35.5105 41.2693C35.5105 42.0259 34.9079 42.6353 34.1646 42.6353C33.428 42.6353 32.8186 42.0193 32.8186 41.2693C32.8253 40.5126 33.428 39.91 34.1646 39.91ZM26.2363 29.4706H33.3878C35.3766 29.4706 36.9636 27.83 36.9636 25.8345V19.0111C36.9636 17.0692 35.3297 15.6161 33.3878 15.288C30.9906 14.8929 28.3858 14.913 26.2363 15.2947C23.2096 15.8304 22.6605 16.9487 22.6605 19.0178V21.7432H29.8187V22.6538H19.9753C17.8928 22.6538 16.0714 23.906 15.5023 26.2832C14.846 29.0085 14.8193 30.7094 15.5023 33.5553C16.0112 35.6713 17.2232 37.1846 19.3057 37.1846H21.7632V33.9169C21.7632 31.5531 23.8056 29.4706 26.2363 29.4706V29.4706ZM25.7876 19.9218C25.0444 19.9218 24.4417 19.3124 24.4417 18.5625C24.4484 17.8058 25.0444 17.1964 25.7876 17.1964C26.5242 17.1964 27.1336 17.8125 27.1336 18.5625C27.1336 19.3124 26.5309 19.9218 25.7876 19.9218V19.9218Z" fill="white"/>
</svg>
