<svg width="60" height="60" viewBox="0 0 60 60" fill="none" xmlns="http://www.w3.org/2000/svg">
<circle cx="30" cy="30" r="30" fill="#008080"/>
<path d="M30.293 45C29.8941 45 29.4893 44.8928 29.1381 44.6904L25.4651 42.5176C24.9175 42.2081 25.1853 42.1009 25.3639 42.0414C26.0961 41.7854 26.245 41.7318 27.0248 41.2853C27.1081 41.2377 27.2153 41.2556 27.2986 41.3092L30.1203 42.9819C30.2216 43.0415 30.3644 43.0415 30.4597 42.9819L41.4548 36.6361C41.556 36.5765 41.6215 36.4575 41.6215 36.3384V23.6467C41.6215 23.5217 41.556 23.4086 41.4489 23.3431L30.4597 17.0032C30.3585 16.9436 30.2216 16.9436 30.1203 17.0032L19.1371 23.349C19.03 23.4086 18.9645 23.5276 18.9645 23.6526V36.3384C18.9645 36.4575 19.03 36.5765 19.1371 36.6301L22.1493 38.3684C23.7864 39.1839 24.7865 38.2255 24.7865 37.2552V24.7301C24.7865 24.5515 24.9294 24.4146 25.1079 24.4146H26.5009C26.6736 24.4146 26.8224 24.5515 26.8224 24.7301V37.2611C26.8224 39.4399 25.6318 40.69 23.5661 40.69C22.9292 40.69 22.4291 40.69 21.0361 39.9995L18.1549 38.3386C17.4405 37.9279 17 37.1599 17 36.3325V23.6467C17 22.8252 17.4405 22.0513 18.1549 21.6405L29.1381 15.2947C29.8346 14.9018 30.7573 14.9018 31.4479 15.2947L42.443 21.6465C43.1574 22.0572 43.5979 22.8252 43.5979 23.6526V36.3384C43.5979 37.1599 43.1574 37.9279 42.443 38.3446L31.4479 44.6904C31.0966 44.8928 30.6978 45 30.293 45V45ZM39.1689 32.4928C39.1689 30.1176 37.5616 29.4866 34.1862 29.0401C30.7692 28.5877 30.424 28.3555 30.424 27.5578C30.424 26.897 30.7156 26.016 33.2457 26.016C35.5018 26.016 36.3352 26.5041 36.6805 28.0281C36.7103 28.1709 36.8413 28.2781 36.9901 28.2781H38.4188C38.5081 28.2781 38.5914 28.2424 38.651 28.1769C38.7105 28.1114 38.7403 28.0221 38.7343 27.9328C38.514 25.3076 36.7698 24.0872 33.2457 24.0872C30.1084 24.0872 28.2392 25.4088 28.2392 27.6292C28.2392 30.0342 30.1025 30.701 33.1087 30.9986C36.7103 31.3498 36.9901 31.8797 36.9901 32.5881C36.9901 33.8144 36.0019 34.3382 33.6862 34.3382C30.7752 34.3382 30.1382 33.606 29.9239 32.1594C29.9001 32.0047 29.7691 31.8916 29.6084 31.8916H28.1856C28.007 31.8916 27.8701 32.0344 27.8701 32.2071C27.8701 34.0584 28.8762 36.267 33.6921 36.267C37.1687 36.261 39.1689 34.8859 39.1689 32.4928V32.4928Z" fill="white"/>
</svg>
