<svg width="60" height="60" viewBox="0 0 60 60" fill="none" xmlns="http://www.w3.org/2000/svg">
<circle cx="30" cy="30" r="30" fill="#FFB700"/>
<path d="M42.5733 33.75H25.3968L25.7803 35.625H41.5079C42.4103 35.625 43.0792 36.4629 42.8792 37.3429L42.5559 38.7653C43.6511 39.2969 44.4062 40.4196 44.4062 41.7187C44.4062 43.547 42.911 45.026 41.0767 44.9996C39.3293 44.9745 37.8921 43.5564 37.845 41.8094C37.8192 40.8551 38.2015 39.9901 38.8295 39.3749H26.5455C27.1535 39.9706 27.5312 40.8003 27.5312 41.7187C27.5312 43.5828 25.9769 45.0838 24.0936 44.9964C22.4213 44.9187 21.0613 43.5676 20.9734 41.8958C20.9055 40.6047 21.5849 39.4668 22.617 38.8731L18.501 18.75H14.4062C13.6296 18.75 13 18.1204 13 17.3437V16.4062C13 15.6296 13.6296 15 14.4062 15H20.4138C21.0818 15 21.6576 15.47 21.7915 16.1244L22.3286 18.75H45.3432C46.2456 18.75 46.9144 19.5879 46.7144 20.4679L43.9445 32.6554C43.799 33.2957 43.2299 33.75 42.5733 33.75V33.75ZM36.9062 24.8437H34.0937V22.5C34.0937 21.9822 33.674 21.5625 33.1562 21.5625H32.2187C31.701 21.5625 31.2812 21.9822 31.2812 22.5V24.8437H28.4687C27.951 24.8437 27.5312 25.2635 27.5312 25.7812V26.7187C27.5312 27.2365 27.951 27.6562 28.4687 27.6562H31.2812V30C31.2812 30.5178 31.701 30.9375 32.2187 30.9375H33.1562C33.674 30.9375 34.0937 30.5178 34.0937 30V27.6562H36.9062C37.424 27.6562 37.8437 27.2365 37.8437 26.7187V25.7812C37.8437 25.2635 37.424 24.8437 36.9062 24.8437Z" fill="white"/>
</svg>
