<svg width="100" height="100" viewBox="0 0 100 100" fill="none" xmlns="http://www.w3.org/2000/svg">
<g clip-path="url(#clip0_40_1729)">
<path d="M40.7041 67.1096H37.4703C37.042 67.1096 36.6312 67.2797 36.3284 67.5825C36.0255 67.8854 35.8554 68.2961 35.8554 68.7244C35.8554 69.1527 36.0255 69.5635 36.3284 69.8663C36.6312 70.1692 37.042 70.3393 37.4703 70.3393H40.7041C41.1323 70.3393 41.5431 70.1692 41.8459 69.8663C42.1488 69.5635 42.3189 69.1527 42.3189 68.7244C42.3189 68.2961 42.1488 67.8854 41.8459 67.5825C41.5431 67.2797 41.1323 67.1096 40.7041 67.1096V67.1096Z" fill="url(#paint0_linear_40_1729)"/>
<path d="M95.3095 49.996H78.1243V23.4325C78.1232 22.2276 77.6587 21.0692 76.827 20.1974C79.4935 17.2846 82.0116 14.2393 84.3716 11.073C88.4257 5.43386 89.4635 2.33927 87.8405 0.728457C86.2176 -0.882354 83.1514 0.136565 77.4959 4.19737C71.9452 8.34267 66.7209 12.9079 61.8689 17.8528C61.5541 18.1514 61.277 18.4447 60.9784 18.7433H4.68919C4.07335 18.7431 3.4635 18.8643 2.8945 19.0999C2.32551 19.3355 1.8085 19.6809 1.37304 20.1163C0.937569 20.5518 0.592173 21.0688 0.356582 21.6378C0.120991 22.2068 -0.000177358 22.8167 1.94849e-07 23.4325V70.3055C-0.000177358 70.9213 0.120991 71.5311 0.356582 72.1001C0.592173 72.6691 0.937569 73.1861 1.37304 73.6216C1.8085 74.0571 2.32551 74.4025 2.8945 74.6381C3.4635 74.8737 4.07335 74.9948 4.68919 74.9946H30.2297C31.0351 77.0192 31.3817 79.1971 31.2446 81.3717C31.1561 82.9365 30.8133 84.4765 30.2297 85.9311H26.5635C26.3544 85.925 26.1462 85.9609 25.9512 86.0366C25.7562 86.1124 25.5784 86.2265 25.4284 86.3723C25.2783 86.518 25.159 86.6924 25.0775 86.885C24.996 87.0777 24.954 87.2848 24.954 87.494C24.954 87.7032 24.996 87.9102 25.0775 88.1029C25.159 88.2956 25.2783 88.4699 25.4284 88.6157C25.5784 88.7614 25.7562 88.8755 25.9512 88.9513C26.1462 89.0271 26.3544 89.063 26.5635 89.0568H51.5635C51.7726 89.063 51.9808 89.0271 52.1758 88.9513C52.3708 88.8755 52.5486 88.7614 52.6987 88.6157C52.8488 88.4699 52.9681 88.2956 53.0495 88.1029C53.131 87.9102 53.173 87.7032 53.173 87.494C53.173 87.2848 53.131 87.0777 53.0495 86.885C52.9681 86.6924 52.8488 86.518 52.6987 86.3723C52.5486 86.2265 52.3708 86.1124 52.1758 86.0366C51.9808 85.9609 51.7726 85.925 51.5635 85.9311H47.9216C47.3291 84.4777 46.9755 82.938 46.8743 81.3717C46.7496 79.1948 47.1072 77.0173 47.9216 74.9946H68.7514V95.3054C68.751 96.5485 69.2444 97.7408 70.123 98.6202C71.0016 99.4995 72.1934 99.9939 73.4365 99.9946H95.3108C95.9267 99.9948 96.5365 99.8736 97.1055 99.6381C97.6745 99.4025 98.1915 99.0571 98.627 98.6216C99.0624 98.1861 99.4078 97.6691 99.6434 97.1001C99.879 96.5311 100 95.9213 100 95.3054V54.6838C100 54.068 99.879 53.4582 99.6434 52.8892C99.4078 52.3202 99.0624 51.8032 98.627 51.3677C98.1915 50.9322 97.6745 50.5868 97.1055 50.3512C96.5365 50.1156 95.9267 49.9945 95.3108 49.9947L95.3095 49.996ZM64.0622 20.0568C74.3095 9.76089 82.6081 3.93116 85.3108 3.19737C84.5622 5.90008 78.7324 14.1339 68.4514 24.4798C58.1703 34.8257 49.873 40.6217 47.1703 41.3393C47.9041 38.6366 53.7324 30.3379 64.0622 20.0568V20.0568ZM44.7068 43.7433C44.9524 43.9884 45.2457 44.1803 45.5686 44.3073C45.8915 44.4342 46.2371 44.4934 46.5838 44.4811H46.8689C44.6649 49.0757 40.4635 51.7784 33.8959 52.7149L35.6 51.0109C37.0805 49.4604 38.3873 47.753 39.4973 45.919C40.3567 44.2918 41.6015 42.8999 43.123 41.8649C43.4462 41.6864 43.7812 41.5302 44.1257 41.3974C44.0289 41.8064 44.0312 42.2327 44.1322 42.6407C44.2333 43.0487 44.4303 43.4267 44.7068 43.7433ZM4.68784 21.8649H57.923C54.4366 25.525 51.1795 29.3968 48.1703 33.4582C47.1642 34.8256 46.2465 36.256 45.423 37.7406C43.9884 38.013 42.6149 38.5427 41.3689 39.3041C39.4494 40.5778 37.868 42.2988 36.7608 44.319C35.7632 45.9758 34.5848 47.5167 33.2473 48.9136L33.1122 49.0703C31.4568 50.7744 29.177 53.1244 28.1297 53.1244H15.6297C15.4206 53.1182 15.2124 53.1541 15.0174 53.2299C14.8224 53.3057 14.6446 53.4198 14.4946 53.5655C14.3445 53.7113 14.2252 53.8856 14.1437 54.0783C14.0622 54.271 14.0203 54.478 14.0203 54.6872C14.0203 54.8964 14.0622 55.1035 14.1437 55.2962C14.2252 55.4888 14.3445 55.6632 14.4946 55.8089C14.6446 55.9547 14.8224 56.0688 15.0174 56.1446C15.2124 56.2203 15.4206 56.2562 15.6297 56.2501H56.2514C56.6579 56.2381 57.0438 56.0682 57.3271 55.7764C57.6104 55.4846 57.7689 55.0939 57.7689 54.6872C57.7689 54.2805 57.6104 53.8898 57.3271 53.598C57.0438 53.3062 56.6579 53.1363 56.2514 53.1244H42.7473C44.6773 52.0753 46.3774 50.6497 47.7469 48.9321C49.1163 47.2145 50.1274 45.2396 50.7203 43.1244C52.2191 42.2902 53.6634 41.3618 55.0446 40.3447C60.592 36.1933 65.816 31.6266 70.6716 26.6839C72.0608 25.2947 73.423 23.9041 74.7041 22.5271C74.9049 22.786 75.0103 23.1063 75.0027 23.4339V49.996H73.4351C72.1921 49.9967 71.0002 50.4911 70.1216 51.3705C69.243 52.2498 68.7496 53.4421 68.75 54.6852V62.496H3.12432V23.4325C3.12361 23.2268 3.16354 23.023 3.24181 22.8327C3.32008 22.6425 3.43516 22.4696 3.58043 22.3239C3.72571 22.1783 3.89832 22.0627 4.08836 21.984C4.2784 21.9052 4.48212 21.8648 4.68784 21.8649V21.8649ZM43.7419 81.5528C43.8291 83.0423 44.108 84.5143 44.5716 85.9325H33.5311C33.9917 84.5149 34.2745 83.0455 34.373 81.5582C34.5009 79.3387 34.221 77.1146 33.5473 74.996H44.6095C43.9259 77.1129 43.6338 79.3366 43.7473 81.5582L43.7419 81.5528ZM4.68784 71.8649C4.48293 71.8653 4.27997 71.8252 4.09054 71.7471C3.90111 71.669 3.72894 71.5543 3.58386 71.4096C3.43879 71.2649 3.32365 71.093 3.24503 70.9038C3.16641 70.7146 3.12585 70.5117 3.12568 70.3068V65.6217H68.7514V71.873L4.68784 71.8649ZM96.8689 95.3068C96.8695 95.5117 96.8295 95.7146 96.7513 95.904C96.6731 96.0934 96.5582 96.2654 96.4133 96.4102C96.2683 96.555 96.0962 96.6698 95.9068 96.7478C95.7173 96.8258 95.5143 96.8656 95.3095 96.8649H73.4365C73.2312 96.8656 73.0278 96.8259 72.838 96.7479C72.6481 96.67 72.4754 96.5554 72.3298 96.4107C72.1842 96.266 72.0686 96.094 71.9895 95.9046C71.9104 95.7152 71.8695 95.5121 71.8689 95.3068V54.6852C71.8687 54.4795 71.9092 54.2758 71.988 54.0857C72.0667 53.8957 72.1822 53.7231 72.3279 53.5778C72.4735 53.4325 72.6465 53.3174 72.8367 53.2392C73.0269 53.1609 73.2308 53.121 73.4365 53.1217H95.3095C95.5148 53.121 95.7182 53.1609 95.908 53.2393C96.0978 53.3177 96.2702 53.4329 96.4152 53.5783C96.5602 53.7237 96.675 53.8963 96.7528 54.0863C96.8307 54.2763 96.8702 54.4799 96.8689 54.6852V95.3068Z" fill="url(#paint1_linear_40_1729)"/>
<path d="M87.0662 90.2986H80.6027C80.1952 90.3298 79.8145 90.5137 79.5368 90.8135C79.2591 91.1133 79.1048 91.5069 79.1048 91.9155C79.1048 92.3242 79.2591 92.7178 79.5368 93.0176C79.8145 93.3174 80.1952 93.5012 80.6027 93.5324H87.0662C87.4736 93.5012 87.8543 93.3174 88.132 93.0176C88.4097 92.7178 88.564 92.3242 88.564 91.9155C88.564 91.5069 88.4097 91.1133 88.132 90.8135C87.8543 90.5137 87.4736 90.3298 87.0662 90.2986V90.2986Z" fill="url(#paint2_linear_40_1729)"/>
<path d="M85.4499 56.2406C85.4187 56.648 85.2349 57.0287 84.9351 57.3064C84.6353 57.5841 84.2417 57.7384 83.833 57.7384C83.4244 57.7384 83.0308 57.5841 82.731 57.3064C82.4312 57.0287 82.2473 56.648 82.2162 56.2406C82.1991 56.0178 82.2283 55.794 82.3018 55.583C82.3753 55.3721 82.4916 55.1786 82.6434 55.0148C82.7952 54.8509 82.9793 54.7201 83.184 54.6307C83.3887 54.5413 83.6097 54.4952 83.833 54.4952C84.0564 54.4952 84.2774 54.5413 84.4821 54.6307C84.6868 54.7201 84.8708 54.8509 85.0227 55.0148C85.1745 55.1786 85.2908 55.3721 85.3643 55.583C85.4378 55.794 85.467 56.0178 85.4499 56.2406" fill="url(#paint3_linear_40_1729)"/>
</g>
<defs>
<linearGradient id="paint0_linear_40_1729" x1="39.0872" y1="67.1096" x2="39.0872" y2="70.3393" gradientUnits="userSpaceOnUse">
<stop stop-color="#CC8712"/>
<stop offset="0.473958" stop-color="#CC8712"/>
</linearGradient>
<linearGradient id="paint1_linear_40_1729" x1="50" y1="-0.00012207" x2="50" y2="99.9946" gradientUnits="userSpaceOnUse">
<stop stop-color="#CC8712"/>
<stop offset="0.473958" stop-color="#CC8712"/>
</linearGradient>
<linearGradient id="paint2_linear_40_1729" x1="83.8344" y1="90.2986" x2="83.8344" y2="93.5324" gradientUnits="userSpaceOnUse">
<stop stop-color="#CC8712"/>
<stop offset="0.473958" stop-color="#CC8712"/>
</linearGradient>
<linearGradient id="paint3_linear_40_1729" x1="83.833" y1="54.4952" x2="83.833" y2="57.7384" gradientUnits="userSpaceOnUse">
<stop stop-color="#CC8712"/>
<stop offset="0.473958" stop-color="#CC8712"/>
</linearGradient>
<clipPath id="clip0_40_1729">
<rect width="100" height="99.9946" fill="white"/>
</clipPath>
</defs>
</svg>
