<?xml version="1.0" standalone="no"?>
<!DOCTYPE svg PUBLIC "-//W3C//DTD SVG 20010904//EN"
 "http://www.w3.org/TR/2001/REC-SVG-20010904/DTD/svg10.dtd">
<svg version="1.0" xmlns="http://www.w3.org/2000/svg"
 width="700.000000pt" height="191.000000pt" viewBox="0 0 700.000000 191.000000"
 preserveAspectRatio="xMidYMid meet">

<g transform="translate(0.000000,191.000000) scale(0.100000,-0.100000)"
fill="#000000" stroke="none">
<path d="M3473 1825 c-86 -43 -127 -130 -109 -228 8 -45 70 -115 120 -138 124
-56 284 22 306 149 29 174 -152 299 -317 217z m116 -14 c12 -8 12 -12 2 -24
-15 -19 1 -31 28 -22 12 4 24 -1 33 -12 22 -29 58 -46 72 -34 18 15 29 1 14
-17 -10 -11 -9 -16 5 -23 21 -12 22 -32 3 -48 -10 -8 -16 -9 -21 -1 -11 18
-27 -1 -21 -26 5 -19 2 -25 -16 -29 -31 -8 -52 -53 -35 -73 10 -13 8 -14 -10
-8 -12 4 -30 2 -41 -5 -11 -7 -28 -9 -38 -5 -15 6 -16 9 -5 16 8 4 11 15 8 24
-7 18 -23 21 -32 6 -10 -15 -23 -12 -29 8 -7 22 -58 45 -81 36 -14 -6 -16 -3
-11 13 4 12 1 25 -9 33 -11 9 -12 17 -4 32 8 16 13 17 25 7 20 -16 44 5 26 23
-13 13 1 38 22 38 17 0 38 51 26 65 -14 17 0 27 18 12 12 -10 17 -9 26 6 12
19 24 21 45 8z"/>
<path d="M3560 1645 c0 -8 7 -15 15 -15 8 0 15 7 15 15 0 8 -7 15 -15 15 -8 0
-15 -7 -15 -15z"/>
<path d="M3625 1580 c-3 -6 1 -7 9 -4 18 7 21 14 7 14 -6 0 -13 -4 -16 -10z"/>
<path d="M3789 945 c-3 -2 -74 -5 -158 -6 l-153 -1 5 -31 c3 -18 11 -78 18
-134 l13 -103 128 0 127 0 5 43 c2 23 10 84 16 135 11 86 11 109 -1 97z"/>
<path d="M948 173 c7 -3 16 -2 19 1 4 3 -2 6 -13 5 -11 0 -14 -3 -6 -6z"/>
</g>
</svg>
