<svg width="100" height="102" viewBox="0 0 100 102" fill="none" xmlns="http://www.w3.org/2000/svg">
<path d="M8.72433 0.617266C6.17221 0.617266 3.87621 1.27699 2.26599 2.88293C0.655771 4.48881 -0.0170073 6.80215 0.000326029 9.33692V84.168C-0.00835398 86.7071 0.651371 89.0161 2.26599 90.622C3.88921 92.2366 6.21566 92.9223 8.79377 92.9223H47.3705C52.952 97.7183 60.1961 100.613 68.1216 100.613C85.7039 100.618 100.001 86.3256 100.001 68.7511C100.001 60.8518 97.1141 53.6255 92.3399 48.0433V9.2367C92.3225 6.73237 91.6455 4.47104 90.0396 2.88248C88.4337 1.29393 86.1161 0.616821 83.5813 0.616821L8.72433 0.617266ZM8.72433 5.01392H43.9366V44.575H4.39655V9.34059C4.3488 8.06459 4.75245 6.68437 5.39482 6.01159C6.44951 5.13486 7.59104 5.02636 8.72815 5.01768L8.72433 5.01392ZM48.3332 5.01392H83.581C85.3736 5.01392 86.3675 5.43494 86.9491 6.00785C87.5307 6.58511 87.9342 7.51829 87.9473 9.27174V43.8206C82.5003 39.4759 75.6162 36.8502 68.1251 36.8502C60.6467 36.8502 53.7806 39.4587 48.3373 43.7859L48.3332 5.01392ZM67.8466 13.7726C66.7789 13.9071 65.8978 14.9271 65.9239 16.0034V22.5964H59.0879C57.9377 22.6571 56.9482 23.7639 57.0089 24.914C57.074 26.0643 58.1764 27.0538 59.3266 26.9931H65.9239V33.5859C65.9065 34.7491 66.9611 35.8168 68.1244 35.8168C69.2876 35.8168 70.3379 34.7491 70.325 33.5859V26.9931H76.9221C78.0853 27.0103 79.153 25.9557 79.153 24.7968C79.153 23.6336 78.0853 22.5833 76.9221 22.6006H70.325V16.0078C70.3597 14.3801 69.1487 13.7725 67.8509 13.7768L67.8466 13.7726ZM15.1166 22.5964C13.9663 22.6571 12.9768 23.7639 13.0375 24.914C13.1026 26.0643 14.2051 27.0538 15.3552 26.9931H32.9419C34.1051 27.0103 35.1727 25.9557 35.1727 24.7968C35.1727 23.6336 34.1051 22.5833 32.9419 22.6006H24.0269H15.1119L15.1166 22.5964ZM68.1244 41.2764C83.3288 41.2764 95.6421 53.5508 95.6421 68.7508C95.6421 83.9508 83.3288 96.1897 68.1244 96.1897C52.9199 96.1897 40.6421 83.9497 40.6421 68.7508C40.6421 53.5508 52.921 41.2764 68.1244 41.2764ZM4.39988 48.9674H43.1843C38.8658 54.4144 36.279 61.2763 36.279 68.7462C36.279 76.2162 38.8615 83.0862 43.1843 88.5251H8.79655C6.94321 88.5251 5.97532 88.0693 5.39377 87.4965C4.81652 86.9192 4.38683 85.973 4.39551 84.1675L4.39988 48.9674ZM28.7877 60.9507L24.1522 65.5861L19.4821 60.9507C18.3232 60.0653 17.3641 60.1607 16.4005 60.8725C15.3763 61.8708 15.8277 63.1512 16.3528 64.0756L20.9883 68.7458L16.3528 73.3812C15.5325 74.1972 15.5325 75.6859 16.3528 76.5062C17.1731 77.3222 18.6619 77.3222 19.4778 76.5062L24.1479 71.8361L28.7833 76.5062C29.6037 77.3222 31.0924 77.3222 31.9084 76.5062C32.7287 75.6859 32.7287 74.1972 31.9084 73.3812L27.2383 68.7458L31.9084 64.0756C32.8763 62.9211 32.694 61.9272 31.8996 60.8509C30.7842 60.048 29.6905 60.3822 28.7833 60.9507H28.7877ZM59.0877 62.1529C57.9374 62.218 56.9479 63.3204 57.0087 64.4706C57.0739 65.6208 58.1762 66.6103 59.3263 66.5496H76.913C78.0762 66.567 79.1439 65.5123 79.1439 64.3533C79.1439 63.1901 78.0762 62.1398 76.913 62.1571H59.083L59.0877 62.1529ZM59.1572 70.942C58.0069 70.9941 57.0087 72.0922 57.0608 73.2423C57.1129 74.3925 58.211 75.3908 59.3611 75.3387H76.9478C78.111 75.356 79.1787 74.3013 79.1787 73.1424C79.1787 71.9792 78.111 70.9288 76.9478 70.9462H59.1523L59.1572 70.942Z" fill="url(#paint0_linear_40_1719)"/>
<defs>
<linearGradient id="paint0_linear_40_1719" x1="50.0003" y1="0.616821" x2="50.0003" y2="100.613" gradientUnits="userSpaceOnUse">
<stop stop-color="#CC8712"/>
<stop offset="1" stop-color="#CC8712"/>
</linearGradient>
</defs>
</svg>
