<svg width="100" height="100" viewBox="0 0 100 100" fill="none" xmlns="http://www.w3.org/2000/svg">
<g clip-path="url(#clip0_40_1697)">
<path d="M24.1944 61.2912H27.4196C29.1312 61.2904 30.7726 60.6108 31.9834 59.4012C33.1944 58.1914 33.876 56.5508 33.8784 54.8392H30.6462C30.6436 56.6194 29.201 58.0618 27.421 58.0646H24.1944C22.4144 58.0632 20.9704 56.6194 20.969 54.8392H17.7424C17.745 56.5496 18.4256 58.1892 19.635 59.3986C20.8444 60.608 22.484 61.2886 24.1944 61.2912Z" fill="#CC8712"/>
<path d="M72.5818 35.4848H75.807C77.5174 35.4824 79.157 34.8018 80.3664 33.5924C81.5758 32.383 82.2564 30.7434 82.259 29.033H79.0336C79.031 30.813 77.5884 32.2554 75.8084 32.2582H72.5818C71.7248 32.2596 70.9036 31.9206 70.2974 31.3158C69.6912 30.711 69.351 29.89 69.3496 29.033H66.1298C66.1324 30.7434 66.813 32.383 68.0224 33.5924C69.2318 34.8018 70.8714 35.4824 72.5818 35.4848Z" fill="#CC8712"/>
<path d="M83.233 38.7598C85.3522 37.0664 86.956 34.8146 87.8636 32.2582H88.7108C90.129 32.2622 91.5086 31.7972 92.635 30.936C93.7616 30.0746 94.5718 28.8652 94.9396 27.4956C95.3076 26.126 95.2126 24.6734 94.6694 23.3634C94.1262 22.0536 93.1652 20.96 91.9362 20.2526V12.9038C91.9322 9.483 90.5716 6.2034 88.1528 3.78436C85.734 1.36533 82.4546 0.0043754 79.0336 0H69.3564C65.9354 0.00401086 62.6556 1.36481 60.2364 3.78388C57.8174 6.20296 56.4566 9.48276 56.4526 12.9038V20.2526C55.2228 20.9596 54.2612 22.0532 53.7176 23.3634C53.1738 24.6736 53.0786 26.1268 53.4466 27.4968C53.8146 28.8668 54.6252 30.0766 55.7522 30.938C56.8792 31.7994 58.2594 32.264 59.6778 32.2596H60.5252C61.4334 34.8156 63.037 37.0674 65.1558 38.7612C60.6306 39.0112 56.3724 40.9832 53.2546 44.2724C50.1366 47.5616 48.3952 51.919 48.3874 56.4512V72.0886C46.847 69.891 44.8278 68.072 42.482 66.7686C40.1362 65.4654 37.5252 64.7118 34.8456 64.5648C36.9648 62.8708 38.5686 60.6186 39.4762 58.0618H40.3222C41.7406 58.0662 43.1208 57.6016 44.2478 56.7402C45.3748 55.8788 46.1854 54.669 46.5534 53.299C46.9214 51.929 46.8262 50.4758 46.2824 49.1656C45.7388 47.8554 44.7772 46.7618 43.5474 46.0548V38.7142C43.5438 35.2932 42.183 32.013 39.764 29.594C37.3448 27.1748 34.0648 25.814 30.6436 25.8104H20.9678C17.5466 25.8144 14.2668 27.1752 11.8478 29.5944C9.42868 32.0134 8.06788 35.2932 8.06388 38.7142V46.0632C6.83406 46.77 5.87248 47.8638 5.3288 49.174C4.78512 50.4842 4.68986 51.9372 5.05786 53.3072C5.42586 54.6772 6.23644 55.887 7.36346 56.7484C8.49046 57.6098 9.87064 58.0746 11.2891 58.07H12.1378C13.0461 60.6264 14.6498 62.8784 16.7684 64.573C12.2437 64.8228 7.98604 66.794 4.8682 70.0824C1.75036 73.3708 0.0085929 77.7274 2.35834e-06 82.259V98.3866C-0.000360168 98.5986 0.0410766 98.8084 0.121939 99.0042C0.202802 99.2 0.321502 99.378 0.471238 99.5278C0.620976 99.6776 0.798808 99.7966 0.994552 99.8776C1.19029 99.9586 1.4001 100 1.61195 100H49.9994C50.2112 100 50.4212 99.9588 50.6172 99.878C50.813 99.797 50.991 99.6782 51.141 99.5282C51.2908 99.3784 51.4096 99.2004 51.4906 99.0044C51.5716 98.8086 51.613 98.5986 51.6126 98.3866V82.259C51.6118 79.4238 50.9274 76.6308 49.6176 74.1166C49.741 74.1584 49.8694 74.1844 49.9994 74.1936H98.3866C98.5986 74.194 98.8086 74.1526 99.0044 74.0716C99.2004 73.9906 99.3784 73.8718 99.5282 73.722C99.6782 73.572 99.797 73.394 99.878 73.1982C99.9588 73.0022 100 72.7924 100 72.5804V56.4512C99.9926 51.919 98.2514 47.5614 95.1338 44.272C92.0162 40.9824 87.7582 39.0102 83.233 38.7598ZM18.5801 67.7418L23.646 74.0794L18.7372 78.9868L16.4997 67.8038L17.7397 67.7418H18.5801ZM28.902 67.7418L25.8064 71.6104L22.7106 67.7418H28.902ZM25.2126 85.3698C25.591 85.524 26.0148 85.524 26.3932 85.3698L28.6734 96.7748H22.9366L25.2126 85.3698ZM25.8036 81.5922L23.2452 79.0336L25.8036 76.4752L28.362 79.0336L25.8036 81.5922ZM27.968 74.0752L33.034 67.7376H33.8716C34.2856 67.7398 34.6994 67.761 35.1116 67.801L32.874 78.984L27.968 74.0752ZM40.3222 54.8338H40.2298C40.2918 54.2986 40.3234 53.7606 40.3248 53.2218V48.3874C41.1804 48.3874 42.001 48.7272 42.606 49.3322C43.211 49.9372 43.5508 50.7578 43.5508 51.6134C43.5508 52.469 43.211 53.2894 42.606 53.8944C42.001 54.4994 41.1804 54.8392 40.3248 54.8392M11.2905 38.7142C11.2934 36.1486 12.3139 33.689 14.1281 31.8748C15.9423 30.0606 18.4021 29.04 20.9678 29.0372H30.645C33.2106 29.0396 35.6706 30.06 37.485 31.8744C39.2992 33.6886 40.3196 36.1486 40.3222 38.7142V45.162H33.8702C33.0152 45.161 32.1954 44.8208 31.5908 44.2162C30.9862 43.6116 30.646 42.7918 30.645 41.9368V35.4836H27.4168V37.0954C27.4148 39.2336 26.5644 41.2836 25.0528 42.7956C23.541 44.3076 21.4912 45.1582 19.353 45.1608H11.2905V38.7142ZM11.2905 54.8434C10.8669 54.8434 10.4474 54.76 10.056 54.5978C9.66462 54.4358 9.30898 54.1982 9.00942 53.8986C8.70986 53.599 8.47224 53.2434 8.31012 52.852C8.148 52.4606 8.06456 52.041 8.06456 51.6174C8.06456 51.1938 8.148 50.7744 8.31012 50.383C8.47224 49.9916 8.70986 49.636 9.00942 49.3364C9.30898 49.0368 9.66462 48.7992 10.056 48.637C10.4474 48.475 10.8669 48.3914 11.2905 48.3914V53.23C11.2924 53.7688 11.3246 54.307 11.387 54.842L11.2905 54.8434ZM14.5158 53.2314V48.3874H19.3544C20.9838 48.3866 22.5938 48.0322 24.073 47.3488C25.5522 46.6656 26.8656 45.6694 27.9226 44.4292C28.4146 45.6008 29.2412 46.6014 30.2992 47.3054C31.3572 48.0096 32.5994 48.3858 33.8702 48.3874H37.0954V53.226C37.0954 56.2204 35.906 59.0922 33.7886 61.2096C31.6712 63.327 28.7994 64.5164 25.805 64.5164C22.8106 64.5164 19.9387 63.327 17.8213 61.2096C15.704 59.0922 14.5144 56.2204 14.5144 53.226M3.22528 82.259C3.22922 79.1812 4.21002 76.1842 6.02638 73.6996C7.84272 71.215 10.4009 69.371 13.3323 68.4334L16.1608 82.5758C16.2182 82.862 16.352 83.1274 16.548 83.3438C16.7439 83.5602 16.9948 83.7194 17.274 83.8048C17.4257 83.8494 17.583 83.8722 17.7411 83.8722C17.9529 83.8724 18.1628 83.8306 18.3585 83.7496C18.5542 83.6684 18.7321 83.5496 18.8818 83.3996L20.9664 81.3138L22.4418 82.7894L19.6451 96.7748H12.9039V83.8708H9.6772V96.7748H3.22528V82.259ZM48.3874 96.7748H41.9354V83.8708H38.7144V96.7748H31.9634L29.1666 82.788L30.6408 81.3124L32.7266 83.3984C32.8762 83.548 33.0538 83.667 33.2494 83.748C33.4448 83.829 33.6544 83.8708 33.866 83.8708C34.0248 83.8714 34.1826 83.8482 34.3344 83.802C34.614 83.7178 34.8654 83.559 35.0614 83.3426C35.2576 83.1264 35.391 82.8608 35.4476 82.5744L38.2762 68.4306C41.2078 69.369 43.7658 71.2134 45.5822 73.6984C47.3984 76.1836 48.3792 79.1808 48.3832 82.259L48.3874 96.7748ZM66.966 41.941L72.032 48.2786L67.1204 53.1804L64.883 41.9974L66.123 41.9354L66.966 41.941ZM77.288 41.941L74.1936 45.811L71.0992 41.941H77.288ZM73.604 59.5622C73.9828 59.7148 74.406 59.7148 74.7848 59.5622L77.0648 70.967H71.3238L73.604 59.5622ZM74.195 55.7844L71.6366 53.226L74.195 50.6676L76.7536 53.226L74.195 55.7844ZM76.3568 48.2674L81.4226 41.93H82.259C82.673 41.9322 83.0868 41.9532 83.4988 41.9934L81.267 53.1804L76.3568 48.2674ZM88.7122 29.0316H88.6158C88.6772 28.496 88.709 27.9574 88.7108 27.4182V22.581C89.5664 22.581 90.387 22.921 90.992 23.526C91.597 24.1308 91.9368 24.9514 91.9368 25.807C91.9368 26.6626 91.597 27.4832 90.992 28.0882C90.387 28.693 89.5664 29.033 88.7108 29.033M59.6778 12.9038C59.6808 10.338 60.7014 7.878 62.516 6.06378C64.3304 4.24954 66.7906 3.2292 69.3564 3.22666H79.0336C81.5994 3.22956 84.059 4.25006 85.8732 6.06426C87.6874 7.87846 88.708 10.3382 88.7108 12.9038V19.3558H82.2576C81.4024 19.355 80.5824 19.015 79.9778 18.4103C79.373 17.8056 79.033 16.9857 79.0322 16.1305V9.6772H75.807V11.2891C75.8044 13.4274 74.954 15.4773 73.442 16.9893C71.93 18.5013 69.88 19.3518 67.7418 19.3544H59.6778V12.9038ZM59.6778 29.033C58.8224 29.033 58.0018 28.693 57.3968 28.0882C56.7918 27.4832 56.452 26.6626 56.452 25.807C56.452 24.9514 56.7918 24.1308 57.3968 23.526C58.0018 22.921 58.8224 22.581 59.6778 22.581V27.4168C59.6798 27.956 59.7116 28.4946 59.773 29.0302L59.6778 29.033ZM62.9032 27.4168V22.581H67.7418C69.3712 22.5802 70.981 22.2258 72.4604 21.5424C73.9396 20.859 75.253 19.863 76.3098 18.6228C76.8018 19.7945 77.6286 20.795 78.6866 21.4992C79.7446 22.2032 80.9868 22.5796 82.2576 22.581H85.4828V27.4168C85.4828 30.4114 84.2932 33.2832 82.176 35.4004C80.0586 37.5178 77.1868 38.7074 74.1924 38.7074C71.1978 38.7074 68.326 37.5178 66.2086 35.4004C64.0914 33.2832 62.9018 30.4114 62.9018 27.4168M51.6126 56.4512C51.6168 53.3732 52.598 50.3758 54.4148 47.8912C56.2318 45.4066 58.7904 43.5628 61.7224 42.6256L64.5482 56.7626C64.6056 57.0488 64.7394 57.3142 64.9354 57.5306C65.1314 57.747 65.3822 57.9062 65.6614 57.9916C65.8136 58.0362 65.9712 58.059 66.1298 58.059C66.3414 58.059 66.551 58.0172 66.7466 57.9362C66.942 57.855 67.1196 57.7362 67.2692 57.5864L69.355 55.5006L70.8306 56.9762L68.0324 70.9684H61.2912V58.0646H58.0646V70.9684H51.6126V56.4512ZM96.7748 70.9684H90.3228V58.0646H87.0976V70.9684H80.3562L77.5594 56.9816L79.0336 55.5062L81.1182 57.5892C81.3246 57.7958 81.5834 57.9422 81.8666 58.0132C82.15 58.084 82.4472 58.0766 82.7266 57.9918C83.006 57.9068 83.257 57.7476 83.453 57.5312C83.649 57.3148 83.7824 57.049 83.8392 56.7626L86.6676 42.6188C89.599 43.557 92.157 45.4014 93.9732 47.886C95.7896 50.3708 96.7704 53.368 96.7748 56.4458V70.9684Z" fill="url(#paint0_linear_40_1697)"/>
<path d="M11.2919 16.1291C13.9647 16.1291 16.1305 13.9633 16.1305 11.2905C16.1305 8.6177 13.9647 6.4519 11.2919 6.4519C8.6191 6.4519 6.4533 8.6177 6.4533 11.2905C6.4533 13.9633 8.62048 16.1263 11.2919 16.1291ZM11.2919 9.67718C11.6113 9.67652 11.9236 9.77076 12.1894 9.94792C12.4551 10.1251 12.6622 10.3772 12.7844 10.6723C12.9066 10.9673 12.9385 11.292 12.8758 11.6052C12.8132 11.9184 12.659 12.2059 12.4327 12.4313C12.2072 12.6576 11.9196 12.8119 11.6063 12.8745C11.293 12.9371 10.9681 12.9052 10.673 12.7828C10.3779 12.6604 10.1258 12.453 9.94876 12.1871C9.7717 11.9212 9.67766 11.6086 9.67858 11.2891C9.67858 11.0773 9.72032 10.8676 9.8014 10.6719C9.8825 10.4763 10.0014 10.2985 10.1512 10.1488C10.301 9.99912 10.4789 9.8804 10.6746 9.79948C10.8703 9.71856 11.0801 9.677 11.2919 9.67718Z" fill="url(#paint1_linear_40_1697)"/>
<path d="M24.193 16.1291C26.8658 16.1291 29.0316 13.9633 29.0316 11.2905C29.0316 8.6177 26.8658 6.4519 24.193 6.4519C21.5202 6.4519 19.3544 8.6177 19.3544 11.2905C19.3544 13.9633 21.5216 16.1263 24.193 16.1291ZM24.193 9.67718C24.5124 9.67652 24.8248 9.77076 25.0904 9.94792C25.3562 10.1251 25.5632 10.3772 25.6856 10.6723C25.8078 10.9673 25.8396 11.292 25.777 11.6052C25.7142 11.9184 25.56 12.2059 25.3338 12.4313C25.1084 12.6576 24.8206 12.8119 24.5074 12.8745C24.194 12.9371 23.8692 12.9052 23.5742 12.7828C23.279 12.6604 23.027 12.453 22.8498 12.1871C22.6728 11.9212 22.5788 11.6086 22.5796 11.2891C22.5796 11.0773 22.6214 10.8676 22.7026 10.6719C22.7836 10.4763 22.9024 10.2985 23.0522 10.1488C23.2022 9.99912 23.38 9.8804 23.5758 9.79948C23.7714 9.71856 23.9812 9.677 24.193 9.67718Z" fill="url(#paint2_linear_40_1697)"/>
<path d="M37.0968 16.1291C39.7696 16.1291 41.9354 13.9633 41.9354 11.2905C41.9354 8.6177 39.7696 6.4519 37.0968 6.4519C34.424 6.4519 32.2582 8.6177 32.2582 11.2905C32.2582 13.9633 34.4254 16.1263 37.0968 16.1291ZM37.0968 9.67718C37.4162 9.67652 37.7286 9.77076 37.9944 9.94792C38.26 10.1251 38.4672 10.3772 38.5894 10.6723C38.7116 10.9673 38.7434 11.292 38.6808 11.6052C38.6182 11.9184 38.4638 12.2059 38.2376 12.4313C38.0122 12.6576 37.7246 12.8119 37.4112 12.8745C37.098 12.9371 36.773 12.9052 36.478 12.7828C36.1828 12.6604 35.9308 12.453 35.7536 12.1871C35.5766 11.9212 35.4826 11.6086 35.4836 11.2891C35.4836 11.0773 35.5252 10.8676 35.6064 10.6719C35.6874 10.4763 35.8064 10.2985 35.9562 10.1488C36.106 9.99912 36.2838 9.8804 36.4796 9.79948C36.6752 9.71856 36.885 9.677 37.0968 9.67718Z" fill="url(#paint3_linear_40_1697)"/>
<path d="M74.1936 77.4204H77.419V80.6456H74.1936V77.4204Z" fill="url(#paint4_linear_40_1697)"/>
<path d="M74.1936 83.8708H77.419V87.0962H74.1936V83.8708Z" fill="url(#paint5_linear_40_1697)"/>
<path d="M74.1936 90.3228H77.419V93.548H74.1936V90.3228Z" fill="url(#paint6_linear_40_1697)"/>
<path d="M67.7418 90.3228H70.967V93.548H67.7418V90.3228Z" fill="url(#paint7_linear_40_1697)"/>
<path d="M61.2912 90.3228H64.5164V93.548H61.2912V90.3228Z" fill="url(#paint8_linear_40_1697)"/>
<path d="M54.8392 90.3228H58.0646V93.548H54.8392V90.3228Z" fill="url(#paint9_linear_40_1697)"/>
</g>
<defs>
<linearGradient id="paint0_linear_40_1697" x1="50" y1="0" x2="50" y2="100" gradientUnits="userSpaceOnUse">
<stop stop-color="#CC8712"/>
<stop offset="1" stop-color="#CC8712"/>
</linearGradient>
<linearGradient id="paint1_linear_40_1697" x1="11.2919" y1="6.4519" x2="11.2919" y2="16.1291" gradientUnits="userSpaceOnUse">
<stop stop-color="#CC8712"/>
<stop offset="1" stop-color="#CC8712"/>
</linearGradient>
<linearGradient id="paint2_linear_40_1697" x1="24.193" y1="6.4519" x2="24.193" y2="16.1291" gradientUnits="userSpaceOnUse">
<stop stop-color="#CC8712"/>
<stop offset="1" stop-color="#CC8712"/>
</linearGradient>
<linearGradient id="paint3_linear_40_1697" x1="37.0968" y1="6.4519" x2="37.0968" y2="16.1291" gradientUnits="userSpaceOnUse">
<stop stop-color="#CC8712"/>
<stop offset="1" stop-color="#CC8712"/>
</linearGradient>
<linearGradient id="paint4_linear_40_1697" x1="75.8064" y1="77.4204" x2="75.8064" y2="80.6456" gradientUnits="userSpaceOnUse">
<stop stop-color="#CC8712"/>
<stop offset="1" stop-color="#CC8712"/>
</linearGradient>
<linearGradient id="paint5_linear_40_1697" x1="75.8064" y1="83.8708" x2="75.8064" y2="87.0962" gradientUnits="userSpaceOnUse">
<stop stop-color="#CC8712"/>
<stop offset="1" stop-color="#CC8712"/>
</linearGradient>
<linearGradient id="paint6_linear_40_1697" x1="75.8064" y1="90.3228" x2="75.8064" y2="93.548" gradientUnits="userSpaceOnUse">
<stop stop-color="#CC8712"/>
<stop offset="1" stop-color="#CC8712"/>
</linearGradient>
<linearGradient id="paint7_linear_40_1697" x1="69.3544" y1="90.3228" x2="69.3544" y2="93.548" gradientUnits="userSpaceOnUse">
<stop stop-color="#CC8712"/>
<stop offset="1" stop-color="#CC8712"/>
</linearGradient>
<linearGradient id="paint8_linear_40_1697" x1="62.9038" y1="90.3228" x2="62.9038" y2="93.548" gradientUnits="userSpaceOnUse">
<stop stop-color="#CC8712"/>
<stop offset="1" stop-color="#CC8712"/>
</linearGradient>
<linearGradient id="paint9_linear_40_1697" x1="56.452" y1="90.3228" x2="56.452" y2="93.548" gradientUnits="userSpaceOnUse">
<stop stop-color="#CC8712"/>
<stop offset="1" stop-color="#CC8712"/>
</linearGradient>
<clipPath id="clip0_40_1697">
<rect width="100" height="100" fill="white"/>
</clipPath>
</defs>
</svg>
