<svg width="12" height="18" viewBox="0 0 12 18" fill="none" xmlns="http://www.w3.org/2000/svg">
<path d="M0.408591 7.77392L8.30457 0.383125C8.85032 -0.127708 9.73281 -0.127708 10.2728 0.383125L11.5849 1.6113C12.1306 2.12213 12.1306 2.94816 11.5849 3.45356L5.99383 8.69776L11.5907 13.9365C12.1364 14.4474 12.1364 15.2734 11.5907 15.7788L10.2786 17.0124C9.73281 17.5232 8.85032 17.5232 8.31037 17.0124L0.414396 9.62161C-0.137161 9.11078 -0.137161 8.28475 0.408591 7.77392Z" fill="#CC8712"/>
<path d="M0.408591 7.77392L8.30457 0.383125C8.85032 -0.127708 9.73281 -0.127708 10.2728 0.383125L11.5849 1.6113C12.1306 2.12213 12.1306 2.94816 11.5849 3.45356L5.99383 8.69776L11.5907 13.9365C12.1364 14.4474 12.1364 15.2734 11.5907 15.7788L10.2786 17.0124C9.73281 17.5232 8.85032 17.5232 8.31037 17.0124L0.414396 9.62161C-0.137161 9.11078 -0.137161 8.28475 0.408591 7.77392Z" stroke="black"/>
</svg>
