<svg width="10" height="9" viewBox="0 0 10 9" fill="none" xmlns="http://www.w3.org/2000/svg">
<path d="M5.00627 4.4418L1.59433 7.85374C1.3585 8.08956 0.97717 8.08956 0.743854 7.85374L0.176869 7.28675C-0.0589563 7.05093 -0.0589563 6.66959 0.176869 6.43628L2.59533 4.01781L0.176869 1.59935C-0.0589563 1.36352 -0.0589563 0.982188 0.176869 0.748871L0.741345 0.176869C0.97717 -0.0589563 1.3585 -0.0589563 1.59182 0.176869L5.00376 3.58881C5.2421 3.82464 5.2421 4.20597 5.00627 4.4418V4.4418ZM9.82313 3.58881L6.41119 0.176869C6.17536 -0.0589563 5.79403 -0.0589563 5.56071 0.176869L4.99373 0.743853C4.7579 0.979679 4.7579 1.36101 4.99373 1.59433L7.41219 4.01279L4.99373 6.43126C4.7579 6.66708 4.7579 7.04842 4.99373 7.28173L5.56071 7.84872C5.79654 8.08454 6.17787 8.08454 6.41119 7.84872L9.82313 4.43678C10.059 4.20597 10.059 3.82464 9.82313 3.58881Z" fill="#CC8712"/>
</svg>
