<svg width="12" height="18" viewBox="0 0 12 18" fill="none" xmlns="http://www.w3.org/2000/svg">
<path d="M11.5914 9.62161L3.69543 17.0124C3.14968 17.5232 2.26719 17.5232 1.72724 17.0124L0.415119 15.7842C-0.130632 15.2734 -0.130632 14.4474 0.415119 13.942L6.00617 8.69777L0.409313 3.459C-0.136438 2.94817 -0.136438 2.12214 0.409313 1.61674L1.72144 0.383129C2.26719 -0.127705 3.14968 -0.127705 3.68963 0.383129L11.5856 7.77392C12.1372 8.28475 12.1372 9.11078 11.5914 9.62161Z" fill="#CC8712"/>
<path d="M11.5914 9.62161L3.69543 17.0124C3.14968 17.5232 2.26719 17.5232 1.72724 17.0124L0.415119 15.7842C-0.130632 15.2734 -0.130632 14.4474 0.415119 13.942L6.00617 8.69777L0.409313 3.459C-0.136438 2.94817 -0.136438 2.12214 0.409313 1.61674L1.72144 0.383129C2.26719 -0.127705 3.14968 -0.127705 3.68963 0.383129L11.5856 7.77392C12.1372 8.28475 12.1372 9.11078 11.5914 9.62161Z" stroke="black"/>
</svg>
