<svg width="10" height="9" viewBox="0 0 10 9" fill="none" xmlns="http://www.w3.org/2000/svg">
<path d="M5.00627 5.33572L1.59433 8.77646C1.3585 9.01427 0.97717 9.01427 0.743854 8.77646L0.176869 8.20469C-0.0589563 7.96687 -0.0589563 7.58232 0.176869 7.34704L2.59533 4.90816L0.176869 2.46929C-0.0589563 2.23147 -0.0589563 1.84692 0.176869 1.61164L0.741345 1.03481C0.97717 0.796991 1.3585 0.796991 1.59182 1.03481L5.00376 4.47554C5.2421 4.71336 5.2421 5.09791 5.00627 5.33572V5.33572ZM9.82313 4.47554L6.41119 1.03481C6.17536 0.796991 5.79403 0.796991 5.56071 1.03481L4.99373 1.60658C4.7579 1.84439 4.7579 2.22894 4.99373 2.46423L7.41219 4.9031L4.99373 7.34198C4.7579 7.57979 4.7579 7.96434 4.99373 8.19963L5.56071 8.7714C5.79654 9.00921 6.17787 9.00921 6.41119 8.7714L9.82313 5.33066C10.059 5.09791 10.059 4.71336 9.82313 4.47554Z" fill="#CC8712"/>
</svg>
