<svg width="10" height="9" viewBox="0 0 10 9" fill="none" xmlns="http://www.w3.org/2000/svg">
<path d="M5.00627 5.16138L1.59433 8.70148C1.3585 8.94617 0.97717 8.94617 0.743854 8.70148L0.176869 8.1132C-0.0589563 7.86852 -0.0589563 7.47286 0.176869 7.23078L2.59533 4.72147L0.176869 2.21216C-0.0589563 1.96747 -0.0589563 1.57182 0.176869 1.32974L0.741345 0.736247C0.97717 0.491563 1.3585 0.491563 1.59182 0.736247L5.00376 4.27635C5.2421 4.52104 5.2421 4.91669 5.00627 5.16138V5.16138ZM9.82313 4.27635L6.41119 0.736247C6.17536 0.491563 5.79403 0.491563 5.56071 0.736247L4.99373 1.32453C4.7579 1.56921 4.7579 1.96487 4.99373 2.20695L7.41219 4.71626L4.99373 7.22557C4.7579 7.47026 4.7579 7.86591 4.99373 8.108L5.56071 8.69628C5.79654 8.94096 6.17787 8.94096 6.41119 8.69628L9.82313 5.15617C10.059 4.91669 10.059 4.52104 9.82313 4.27635Z" fill="#CC8712"/>
</svg>
